<svg width="268" height="40" viewBox="0 0 268 40" fill="none" xmlns="http://www.w3.org/2000/svg">
<line x1="64" y1="8.75" x2="64" y2="31.25" stroke="#2E4ADF" stroke-width="2"/>
<line x1="50" y1="12" x2="50" y2="28" stroke="#2E4ADF" stroke-width="2"/>
<line x1="43" y1="5" x2="43" y2="35" stroke="#2E4ADF" stroke-width="2"/>
<line x1="36" y1="3" x2="36" y2="37" stroke="#2E4ADF" stroke-width="2"/>
<line x1="29" y1="11" x2="29" y2="29" stroke="#2E4ADF" stroke-width="2"/>
<line x1="22" y1="3" x2="22" y2="37" stroke="#2E4ADF" stroke-width="2"/>
<line x1="15" y1="10" x2="15" y2="30" stroke="#2E4ADF" stroke-width="2"/>
<line x1="8" y1="16" x2="8" y2="24" stroke="#2E4ADF" stroke-width="2"/>
<line x1="1" y1="18" x2="1" y2="22" stroke="#2E4ADF" stroke-width="2"/>
<line opacity="0.5" x1="71" y1="1.25" x2="71" y2="38.75" stroke="#2E4ADF" stroke-width="2"/>
<line opacity="0.5" x1="78" y1="11.25" x2="78" y2="28.75" stroke="#2E4ADF" stroke-width="2"/>
<line opacity="0.5" x1="85" y1="17.5" x2="85" y2="22.5" stroke="#2E4ADF" stroke-width="2"/>
<line opacity="0.5" x1="92" y1="5" x2="92" y2="35" stroke="#2E4ADF" stroke-width="2"/>
<line opacity="0.5" x1="99" y1="-4.37115e-08" x2="99" y2="40" stroke="#2E4ADF" stroke-width="2"/>
<line opacity="0.5" x1="106" y1="7.5" x2="106" y2="32.5" stroke="#2E4ADF" stroke-width="2"/>
<line opacity="0.5" x1="113" y1="12.5" x2="113" y2="27.5" stroke="#2E4ADF" stroke-width="2"/>
<line opacity="0.5" x1="120" y1="13.75" x2="120" y2="26.25" stroke="#2E4ADF" stroke-width="2"/>
<line opacity="0.5" x1="127" y1="15" x2="127" y2="25" stroke="#2E4ADF" stroke-width="2"/>
<line opacity="0.5" x1="134" y1="10" x2="134" y2="30" stroke="#2E4ADF" stroke-width="2"/>
<line opacity="0.5" x1="141" y1="5" x2="141" y2="35" stroke="#2E4ADF" stroke-width="2"/>
<line opacity="0.5" x1="148" y1="7.5" x2="148" y2="32.5" stroke="#2E4ADF" stroke-width="2"/>
<line opacity="0.5" x1="155" y1="3.75" x2="155" y2="36.25" stroke="#2E4ADF" stroke-width="2"/>
<line opacity="0.5" x1="162" y1="8.75" x2="162" y2="31.25" stroke="#2E4ADF" stroke-width="2"/>
<line opacity="0.5" x1="169" y1="12.5" x2="169" y2="27.5" stroke="#2E4ADF" stroke-width="2"/>
<line opacity="0.5" x1="176" y1="15" x2="176" y2="25" stroke="#2E4ADF" stroke-width="2"/>
<line opacity="0.5" x1="183" y1="11.25" x2="183" y2="28.75" stroke="#2E4ADF" stroke-width="2"/>
<line opacity="0.5" x1="190" y1="16.25" x2="190" y2="23.75" stroke="#2E4ADF" stroke-width="2"/>
<line opacity="0.5" x1="197" y1="17.5" x2="197" y2="22.5" stroke="#2E4ADF" stroke-width="2"/>
<line opacity="0.5" x1="204" y1="15" x2="204" y2="25" stroke="#2E4ADF" stroke-width="2"/>
<line opacity="0.5" x1="211" y1="7.5" x2="211" y2="32.5" stroke="#2E4ADF" stroke-width="2"/>
<line opacity="0.5" x1="218" y1="3.75" x2="218" y2="36.25" stroke="#2E4ADF" stroke-width="2"/>
<line opacity="0.5" x1="225" y1="10" x2="225" y2="30" stroke="#2E4ADF" stroke-width="2"/>
<line opacity="0.5" x1="232" y1="11.25" x2="232" y2="28.75" stroke="#2E4ADF" stroke-width="2"/>
<line opacity="0.5" x1="239" y1="3.75" x2="239" y2="36.25" stroke="#2E4ADF" stroke-width="2"/>
<line opacity="0.5" x1="246" y1="11.25" x2="246" y2="28.75" stroke="#2E4ADF" stroke-width="2"/>
<line opacity="0.5" x1="253" y1="15" x2="253" y2="25" stroke="#2E4ADF" stroke-width="2"/>
<line opacity="0.5" x1="260" y1="16.25" x2="260" y2="23.75" stroke="#2E4ADF" stroke-width="2"/>
<line opacity="0.5" x1="267" y1="17.5" x2="267" y2="22.5" stroke="#2E4ADF" stroke-width="2"/>
<line x1="57" y1="17.5" x2="57" y2="22.5" stroke="#2E4ADF" stroke-width="2"/>
</svg>
