<svg width="85" height="85" viewBox="0 0 85 85" fill="none" xmlns="http://www.w3.org/2000/svg">
<path d="M49.9233 34.6483C59.2572 43.9822 66.7775 53.3166 71.3962 60.8458C73.7098 64.6173 75.2651 67.8873 75.974 70.4483C76.7072 73.0974 76.4362 74.6033 75.7327 75.3069C75.0291 76.0105 73.5231 76.2815 70.874 75.5482C68.3131 74.8394 65.043 73.2841 61.2715 70.9705C53.7424 66.3518 44.408 58.8314 35.074 49.4975C25.7401 40.1636 18.2198 30.8291 13.601 23.3C11.2874 19.5285 9.73212 16.2585 9.0233 13.6975C8.29007 11.0484 8.56106 9.54242 9.26462 8.83887C9.96817 8.13531 11.4741 7.86432 14.1233 8.59755C16.6842 9.30638 19.9543 10.8617 23.7257 13.1753C31.2549 17.794 40.5893 25.3143 49.9233 34.6483Z" stroke="#F5F5F5" stroke-width="2"/>
<path d="M35.0742 34.6482C44.4082 25.3143 53.7426 17.794 61.2717 13.1752C65.0432 10.8616 68.3133 9.30633 70.8742 8.5975C73.5234 7.86427 75.0293 8.13527 75.7329 8.83882C76.4364 9.54237 76.7074 11.0483 75.9742 13.6975C75.2654 16.2584 73.7101 19.5285 71.3965 23.2999C66.7777 30.8291 59.2574 40.1635 49.9235 49.4975C40.5895 58.8314 31.2551 66.3517 23.726 70.9704C19.9545 73.284 16.6844 74.8393 14.1235 75.5482C11.4743 76.2814 9.96839 76.0104 9.26483 75.3069C8.56128 74.6033 8.29029 73.0974 9.02352 70.4482C9.73234 67.8873 11.2876 64.6172 13.6012 60.8457C18.22 53.3166 25.7403 43.9822 35.0742 34.6482Z" stroke="#F5F5F5" stroke-width="2"/>
<circle cx="26" cy="25" r="4" fill="#F5F5F5"/>
<circle cx="26" cy="59" r="4" fill="#F5F5F5"/>
<circle cx="60" cy="25" r="4" fill="#F5F5F5"/>
<circle cx="60" cy="59" r="4" fill="#F5F5F5"/>
</svg>
