<svg width="16" height="10" viewBox="0 0 16 10" fill="none" xmlns="http://www.w3.org/2000/svg">
<path d="M6.45782 4.47044C6.45782 4.47044 7.97189 4.35952 7.97189 2.60711C7.97189 0.854863 6.73307 0 5.16372 0H2.2752H2.19035H0V9.79194H2.19035H2.2752H5.16372C5.16372 9.79194 8.31596 9.89034 8.31596 6.90186C8.31613 6.90186 8.45359 4.47044 6.45782 4.47044ZM2.2752 1.74055H4.79209H5.16388C5.16388 1.74055 5.86588 1.74054 5.86588 2.75923C5.86588 3.77791 5.45283 3.92558 4.98483 3.92558H2.2752V1.74055ZM5.0306 8.0519H2.2752V5.4349H5.16372C5.16372 5.4349 6.20995 5.42171 6.20995 6.77974C6.20995 7.91214 5.44482 8.04052 5.0306 8.0519Z" fill="#F5F5F5"/>
<path d="M14.4792 0.578125H10.3848V1.78403H14.4792V0.578125Z" fill="#F5F5F5"/>
<path d="M12.5193 2.49219C8.70317 2.49219 8.70651 6.25411 8.70651 6.25411C8.70651 6.25411 8.44495 9.99741 12.5195 9.99741C12.5195 9.99741 15.9153 10.1889 15.9153 7.39327H14.1689C14.1689 7.39327 14.2272 8.44656 12.5778 8.44656C12.5778 8.44656 10.8316 8.56176 10.8316 6.74244H15.9734C15.9734 6.74244 16.5359 2.49219 12.5193 2.49219ZM14.0717 5.43551H10.8118C10.8118 5.43551 11.0251 3.92619 12.5581 3.92619C14.0912 3.92602 14.0717 5.43551 14.0717 5.43551Z" fill="#F5F5F5"/>
</svg>
