<svg width="16" height="10" viewBox="0 0 16 10" fill="none" xmlns="http://www.w3.org/2000/svg">
<path opacity="0.45" d="M15.8406 2.15773C15.8406 2.15773 15.6844 1.17745 15.2031 0.747015C14.5938 0.180505 13.9125 0.177728 13.6 0.144404C11.3625 -7.94508e-08 8.00313 0 8.00313 0H7.99687C7.99687 0 4.6375 -7.94508e-08 2.4 0.144404C2.0875 0.177728 1.40625 0.180505 0.796875 0.747015C0.315625 1.17745 0.1625 2.15773 0.1625 2.15773C0.1625 2.15773 0 3.31019 0 4.45987V5.53735C0 6.68703 0.159375 7.83949 0.159375 7.83949C0.159375 7.83949 0.315625 8.81977 0.79375 9.25021C1.40313 9.81672 2.20313 9.79728 2.55938 9.85837C3.84063 9.96668 8 10 8 10C8 10 11.3625 9.99445 13.6 9.85282C13.9125 9.8195 14.5938 9.81672 15.2031 9.25021C15.6844 8.81977 15.8406 7.83949 15.8406 7.83949C15.8406 7.83949 16 6.68981 16 5.53735V4.45987C16 3.31019 15.8406 2.15773 15.8406 2.15773ZM6.34688 6.84532V2.84921L10.6687 4.85421L6.34688 6.84532Z" fill="#F5F5F5"/>
</svg>
