<svg width="14" height="14" viewBox="0 0 14 14" fill="none" xmlns="http://www.w3.org/2000/svg">
<g opacity="0.45">
<path fill-rule="evenodd" clip-rule="evenodd" d="M7.0041 0C5.1026 0 4.86457 0.00820473 4.11765 0.0410236C3.37346 0.0738426 2.86183 0.194179 2.4186 0.366478C1.95622 0.546982 1.56498 0.784919 1.17647 1.17601C0.785226 1.56437 0.547196 1.95546 0.366621 2.41493C0.194254 2.86072 0.0738714 3.36941 0.0410397 4.1133C0.00820794 4.86267 0 5.10061 0 7.00137C0 8.90213 0.00820794 9.14007 0.0410397 9.8867C0.0738714 10.6306 0.194254 11.142 0.366621 11.5851C0.547196 12.0473 0.785226 12.4384 1.17647 12.8267C1.56498 13.2151 1.95622 13.4558 2.41587 13.6335C2.86183 13.8058 3.37072 13.9262 4.11491 13.959C4.86183 13.9918 5.09986 14 7.00137 14C8.90287 14 9.1409 13.9918 9.88783 13.959C10.632 13.9262 11.1436 13.8058 11.5869 13.6335C12.0465 13.4558 12.4378 13.2151 12.8263 12.8267C13.2148 12.4384 13.4555 12.0473 13.6334 11.5878C13.8057 11.142 13.9261 10.6333 13.959 9.88943C13.9918 9.1428 14 8.90487 14 7.0041C14 5.10334 13.9918 4.8654 13.959 4.11877C13.9261 3.37488 13.8057 2.86345 13.6334 2.42039C13.461 1.95546 13.223 1.56437 12.8317 1.17601C12.4432 0.787654 12.052 0.546982 11.5923 0.369213C11.1464 0.196913 10.6375 0.0765775 9.8933 0.0437586C9.14364 0.00820473 8.90561 0 7.0041 0ZM7.00621 3.40521C5.01989 3.40521 3.4084 5.01607 3.4084 7.00161C3.4084 8.98716 5.01989 10.598 7.00621 10.598C8.99253 10.598 10.604 8.98716 10.604 7.00161C10.604 5.01607 8.99253 3.40521 7.00621 3.40521ZM7.00621 9.33449C5.71756 9.33449 4.67242 8.28976 4.67242 7.00161C4.67242 5.71347 5.71756 4.66874 7.00621 4.66874C8.29485 4.66874 9.34 5.71347 9.34 7.00161C9.34 8.28976 8.29485 9.33449 7.00621 9.33449ZM10.7457 4.10326C11.2081 4.10326 11.5856 3.72858 11.5856 3.26364C11.5856 2.80144 11.2081 2.42402 10.7457 2.42402C10.2833 2.42402 9.90573 2.79871 9.90573 3.26364C9.90573 3.72584 10.2806 4.10326 10.7457 4.10326Z" fill="#F5F5F5"/>
</g>
</svg>
