<svg width="86" height="79" viewBox="0 0 86 79" fill="none" xmlns="http://www.w3.org/2000/svg">
<path d="M22.8225 4.93427L29.5 1.14946L36.1775 4.93428L42.794 8.82473L42.855 16.5L42.794 24.1753L36.1775 28.0658L29.5 31.8505L22.8226 28.0658L16.206 24.1753L16.145 16.5L16.206 8.82473L22.8225 4.93427Z" stroke="#F5F5F5" stroke-width="2"/>
<path d="M22.8225 50.9343L29.5 47.1495L36.1775 50.9343L42.794 54.8247L42.855 62.5L42.794 70.1753L36.1775 74.0658L29.5 77.8505L22.8226 74.0658L16.206 70.1753L16.145 62.5L16.206 54.8247L22.8225 50.9343Z" stroke="#F5F5F5" stroke-width="2"/>
<path d="M9.8225 27.9343L16.5 24.1495L23.1775 27.9343L29.794 31.8247L29.855 39.5L29.794 47.1753L23.1775 51.0658L16.5 54.8505L9.82257 51.0658L3.20604 47.1753L3.14503 39.5L3.20604 31.8247L9.8225 27.9343Z" stroke="#F5F5F5" stroke-width="2"/>
<path d="M35.8225 27.9343L42.5 24.1495L49.1775 27.9343L55.794 31.8247L55.855 39.5L55.794 47.1753L49.1775 51.0658L42.5 54.8505L35.8226 51.0658L29.206 47.1753L29.145 39.5L29.206 31.8247L35.8225 27.9343Z" stroke="#F5F5F5" stroke-width="2"/>
<path d="M62.8225 27.9343L69.5 24.1495L76.1775 27.9343L82.794 31.8247L82.855 39.5L82.794 47.1753L76.1775 51.0658L69.5 54.8505L62.8226 51.0658L56.206 47.1753L56.145 39.5L56.206 31.8247L62.8225 27.9343Z" stroke="#F5F5F5" stroke-width="2"/>
<path d="M49.8225 4.93427L56.5 1.14946L63.1775 4.93428L69.794 8.82473L69.855 16.5L69.794 24.1753L63.1775 28.0658L56.5 31.8505L49.8226 28.0658L43.206 24.1753L43.145 16.5L43.206 8.82473L49.8225 4.93427Z" stroke="#F5F5F5" stroke-width="2"/>
<path d="M49.8225 50.9343L56.5 47.1495L63.1775 50.9343L69.794 54.8247L69.855 62.5L69.794 70.1753L63.1775 74.0658L56.5 77.8505L49.8226 74.0658L43.206 70.1753L43.145 62.5L43.206 54.8247L49.8225 50.9343Z" stroke="#F5F5F5" stroke-width="2"/>
</svg>
