<svg width="85" height="82" viewBox="0 0 85 82" fill="none" xmlns="http://www.w3.org/2000/svg">
<rect x="1" y="1" width="83" height="80" rx="2" stroke="#F5F5F5" stroke-width="2"/>
<rect x="7.5" y="21.5" width="22" height="3" rx="1.5" fill="#F5F5F5" stroke="#F5F5F5"/>
<rect x="55.6113" y="14.7071" width="16.8346" height="16.8346" rx="8.4173" transform="rotate(45 55.6113 14.7071)" fill="#F5F5F5" stroke="#F5F5F5"/>
<rect x="67.7227" y="15.4142" width="15.8346" height="15.8346" rx="7.9173" transform="rotate(45 67.7227 15.4142)" stroke="#F5F5F5" stroke-width="2"/>
<rect x="7.5" y="26.7783" width="15" height="3" rx="1.5" fill="#F5F5F5" stroke="#F5F5F5"/>
<rect x="58" y="49" width="19" height="22" rx="2" stroke="#F5F5F5" stroke-width="2"/>
<rect x="33" y="49" width="19" height="22" rx="2" stroke="#F5F5F5" stroke-width="2"/>
<rect x="8" y="49" width="19" height="22" rx="2" stroke="#F5F5F5" stroke-width="2"/>
<rect x="7.5" y="7.5" width="7" height="2" rx="0.5" fill="#F5F5F5" stroke="#F5F5F5"/>
<rect x="51.5" y="7.5" width="4" height="1" rx="0.5" stroke="#F5F5F5"/>
<rect x="58.5" y="7.5" width="4" height="1" rx="0.5" stroke="#F5F5F5"/>
<rect x="65.5" y="7.5" width="4" height="1" rx="0.5" stroke="#F5F5F5"/>
<rect x="75.5" y="6.5" width="3" height="3" rx="1.5" fill="#F5F5F5" stroke="#F5F5F5"/>
</svg>
