<svg width="40" height="80" viewBox="0 0 40 80" fill="none" xmlns="http://www.w3.org/2000/svg">
    <line x1="40" y1="40" x2="0.999996" y2="40" stroke="#F5F5F5" stroke-width="2"/>
    <line x1="40" y1="57" x2="12.8182" y2="57" stroke="#F5F5F5" stroke-width="2"/>
    <line x1="40" y1="74" x2="28.1818" y2="74" stroke="#F5F5F5" stroke-width="2"/>
    <line x1="40" y1="6" x2="28.1818" y2="6" stroke="#F5F5F5" stroke-width="2"/>
    <line x1="-8.74228e-08" y1="40" x2="39" y2="40" stroke="#F5F5F5" stroke-width="2"/>
    <line x1="-8.74228e-08" y1="23" x2="27.1818" y2="23" stroke="#F5F5F5" stroke-width="2"/>
    <line x1="-8.74228e-08" y1="6" x2="11.8182" y2="6" stroke="#F5F5F5" stroke-width="2"/>
    <line x1="-8.74228e-08" y1="74" x2="11.8182" y2="74" stroke="#F5F5F5" stroke-width="2"/>
    <line x1="-8.74228e-08" y1="57" x2="27.1818" y2="57" stroke="#F5F5F5" stroke-width="2"/>
    <line x1="40" y1="23" x2="12.8182" y2="23" stroke="#F5F5F5" stroke-width="2"/>
    <line x1="1.18164" y1="46" x2="1.18164" y2="34" stroke="#F5F5F5" stroke-width="2"/>
    <line x1="11.8184" y1="63" x2="11.8184" y2="51" stroke="#F5F5F5" stroke-width="2"/>
    <line x1="27.1816" y1="80" x2="27.1816" y2="68" stroke="#F5F5F5" stroke-width="2"/>
    <line x1="27.1816" y1="12" x2="27.1816" y2="3.46328e-08" stroke="#F5F5F5" stroke-width="2"/><line x1="11.8184" y1="29" x2="11.8184" y2="17" stroke="#F5F5F5" stroke-width="2"/>
    <line x1="38.8184" y1="34" x2="38.8184" y2="46" stroke="#F5F5F5" stroke-width="2"/>
    <line x1="28.1816" y1="17" x2="28.1816" y2="29" stroke="#F5F5F5" stroke-width="2"/>
    <line x1="12.8184" y1="-1.22056e-07" x2="12.8184" y2="12" stroke="#F5F5F5" stroke-width="2"/>
    <line x1="12.8184" y1="68" x2="12.8184" y2="80" stroke="#F5F5F5" stroke-width="2"/>
    <line x1="28.1816" y1="51" x2="28.1816" y2="63" stroke="#F5F5F5" stroke-width="2"/>
</svg>
